<svg id="settings" xmlns="http://www.w3.org/2000/svg" width="23" height="23" viewBox="0 0 23 23">
  <circle id="Ellipse_32" data-name="Ellipse 32" cx="3" cy="3" r="3" transform="translate(8.5 8.5)" stroke-width="2" stroke="#333" stroke-linecap="round" stroke-linejoin="round" fill="none"/>
  <path id="Path_67" data-name="Path 67" d="M18.564,14.364a1.575,1.575,0,0,0,.315,1.737l.057.057a1.91,1.91,0,1,1-2.7,2.7l-.057-.057a1.588,1.588,0,0,0-2.692,1.126v.162a1.909,1.909,0,1,1-3.818,0V20a1.575,1.575,0,0,0-1.031-1.441,1.575,1.575,0,0,0-1.737.315l-.057.057a1.91,1.91,0,1,1-2.7-2.7l.057-.057a1.588,1.588,0,0,0-1.126-2.692H2.909a1.909,1.909,0,0,1,0-3.818h.086A1.575,1.575,0,0,0,4.436,8.636,1.575,1.575,0,0,0,4.121,6.9l-.057-.057a1.91,1.91,0,1,1,2.7-2.7l.057.057a1.575,1.575,0,0,0,1.737.315h.076a1.575,1.575,0,0,0,.955-1.441V2.909a1.909,1.909,0,0,1,3.818,0v.086A1.588,1.588,0,0,0,16.1,4.121l.057-.057a1.91,1.91,0,1,1,2.7,2.7l-.057.057a1.575,1.575,0,0,0-.315,1.737v.076a1.575,1.575,0,0,0,1.441.955h.162a1.909,1.909,0,1,1,0,3.818H20A1.575,1.575,0,0,0,18.564,14.364Z" fill="none" stroke="#333" stroke-linecap="round" stroke-linejoin="round" stroke-width="2"/>
</svg>
