<svg xmlns="http://www.w3.org/2000/svg" width="22" height="21" viewBox="0 0 22 21">
  <g id="Group_74" data-name="Group 74" transform="translate(-212.435 -1562.254)">
    <g id="Group_71" data-name="Group 71" transform="translate(212 1562)">
      <g id="Ellipse_2" data-name="Ellipse 2" transform="translate(0.435 0.254)" fill="#1592e6" stroke="#81c5fd" stroke-width="1">
        <circle cx="1.5" cy="1.5" r="1.5" stroke="none"/>
        <circle cx="1.5" cy="1.5" r="1" fill="none"/>
      </g>
      <g id="Ellipse_3" data-name="Ellipse 3" transform="translate(9.435 0.254)" fill="#1592e6" stroke="#81c5fd" stroke-width="1">
        <circle cx="1.5" cy="1.5" r="1.5" stroke="none"/>
        <circle cx="1.5" cy="1.5" r="1" fill="none"/>
      </g>
      <g id="Ellipse_4" data-name="Ellipse 4" transform="translate(19.435 0.254)" fill="#1592e6" stroke="#81c5fd" stroke-width="1">
        <circle cx="1.5" cy="1.5" r="1.5" stroke="none"/>
        <circle cx="1.5" cy="1.5" r="1" fill="none"/>
      </g>
    </g>
    <g id="Group_72" data-name="Group 72" transform="translate(212 1571.446)">
      <g id="Ellipse_2-2" data-name="Ellipse 2" transform="translate(0.435 -0.192)" fill="#1592e6" stroke="#81c5fd" stroke-width="1">
        <circle cx="1.5" cy="1.5" r="1.5" stroke="none"/>
        <circle cx="1.5" cy="1.5" r="1" fill="none"/>
      </g>
      <g id="Ellipse_3-2" data-name="Ellipse 3" transform="translate(9.435 -0.192)" fill="#1592e6" stroke="#81c5fd" stroke-width="1">
        <circle cx="1.5" cy="1.5" r="1.5" stroke="none"/>
        <circle cx="1.5" cy="1.5" r="1" fill="none"/>
      </g>
      <g id="Ellipse_4-2" data-name="Ellipse 4" transform="translate(19.435 -0.192)" fill="#1592e6" stroke="#81c5fd" stroke-width="1">
        <circle cx="1.5" cy="1.5" r="1.5" stroke="none"/>
        <circle cx="1.5" cy="1.5" r="1" fill="none"/>
      </g>
    </g>
    <g id="Group_73" data-name="Group 73" transform="translate(212 1580.302)">
      <g id="Ellipse_2-3" data-name="Ellipse 2" transform="translate(0.435 -0.048)" fill="#1592e6" stroke="#81c5fd" stroke-width="1">
        <circle cx="1.5" cy="1.5" r="1.5" stroke="none"/>
        <circle cx="1.5" cy="1.5" r="1" fill="none"/>
      </g>
      <g id="Ellipse_3-3" data-name="Ellipse 3" transform="translate(9.435 -0.048)" fill="#1592e6" stroke="#81c5fd" stroke-width="1">
        <circle cx="1.5" cy="1.5" r="1.5" stroke="none"/>
        <circle cx="1.5" cy="1.5" r="1" fill="none"/>
      </g>
      <g id="Ellipse_4-3" data-name="Ellipse 4" transform="translate(19.435 -0.048)" fill="#1592e6" stroke="#81c5fd" stroke-width="1">
        <circle cx="1.5" cy="1.5" r="1.5" stroke="none"/>
        <circle cx="1.5" cy="1.5" r="1" fill="none"/>
      </g>
    </g>
  </g>
</svg>
