<svg xmlns="http://www.w3.org/2000/svg" width="310.788" height="256.414" viewBox="0 0 310.788 256.414">
  <g id="Component_1_2" data-name="Component 1 – 2" transform="translate(1.696 1.158)">
    <path id="Path_1" data-name="Path 1" d="M877,441.774V373.092l110.193,34.117Z" transform="translate(-729.551 -325.655)" fill="#1592e6" stroke="#fff" stroke-width="1"/>
    <path id="Path_2" data-name="Path 2" d="M987.193,441.774V373.092L877,407.209Z" transform="translate(-839.421 -325.655)" fill="#1482cc" stroke="#fff" stroke-width="1"/>
    <path id="Path_3" data-name="Path 3" d="M877.786,317.556l110.662,34.2,48.566-39.4L926.2,278.723Z" transform="translate(-730.013 -270.119)" fill="#1592e6" stroke="#fff" stroke-width="2"/>
    <path id="Path_4" data-name="Path 4" d="M556.256,340.307,667,305.813l-37.513-47L518.677,293.309Z" transform="translate(-518.677 -258.814)" fill="#1592e6" stroke="#fff" stroke-width="2"/>
    <path id="Path_5" data-name="Path 5" d="M610,456.855V596.126l112.471,33.2-1.725-137.115Z" transform="translate(-572.421 -374.95)" fill="#1482cc" stroke="#fff" stroke-width="1"/>
    <path id="Path_6" data-name="Path 6" d="M556.873,456.546l-37.148,45.832,111.244,34.063,37.081-45.274Z" transform="translate(-518.882 -375.18)" fill="#1592e6" stroke="#fff" stroke-width="2"/>
    <path id="Path_7" data-name="Path 7" d="M883.557,631.534l114.027-34.661-3.717-138.016-110.546,33.67Z" transform="translate(-734.996 -376.952)" fill="#1592e6" stroke="#fff" stroke-width="1"/>
    <path id="Path_8" data-name="Path 8" d="M880.371,490.5l109.511-34.4,33.13,55.5L911.768,545.233Z" transform="translate(-731.535 -374.505)" fill="#1592e6" stroke="#fff" stroke-width="2"/>
  </g>
</svg>
