<svg xmlns="http://www.w3.org/2000/svg" width="38" height="36" viewBox="0 0 38 36">
  <g id="Group_74" data-name="Group 74" transform="translate(-212 -1562)">
    <g id="Group_71" data-name="Group 71" transform="translate(0 15)">
      <g id="Ellipse_2" data-name="Ellipse 2" transform="translate(212 1547)" fill="#81c5fd" stroke="#81c5fd" stroke-width="1">
        <circle cx="2.5" cy="2.5" r="2.5" stroke="none"/>
        <circle cx="2.5" cy="2.5" r="2" fill="none"/>
      </g>
      <g id="Ellipse_3" data-name="Ellipse 3" transform="translate(228 1547)" fill="#81c5fd" stroke="#81c5fd" stroke-width="1">
        <circle cx="2.5" cy="2.5" r="2.5" stroke="none"/>
        <circle cx="2.5" cy="2.5" r="2" fill="none"/>
      </g>
      <g id="Ellipse_4" data-name="Ellipse 4" transform="translate(245 1547)" fill="#81c5fd" stroke="#81c5fd" stroke-width="1">
        <circle cx="2.5" cy="2.5" r="2.5" stroke="none"/>
        <circle cx="2.5" cy="2.5" r="2" fill="none"/>
      </g>
    </g>
    <g id="Group_72" data-name="Group 72" transform="translate(0 31)">
      <g id="Ellipse_2-2" data-name="Ellipse 2" transform="translate(212 1547)" fill="#81c5fd" stroke="#81c5fd" stroke-width="1">
        <circle cx="2.5" cy="2.5" r="2.5" stroke="none"/>
        <circle cx="2.5" cy="2.5" r="2" fill="none"/>
      </g>
      <g id="Ellipse_3-2" data-name="Ellipse 3" transform="translate(228 1547)" fill="#81c5fd" stroke="#81c5fd" stroke-width="1">
        <circle cx="2.5" cy="2.5" r="2.5" stroke="none"/>
        <circle cx="2.5" cy="2.5" r="2" fill="none"/>
      </g>
      <g id="Ellipse_4-2" data-name="Ellipse 4" transform="translate(245 1547)" fill="#81c5fd" stroke="#81c5fd" stroke-width="1">
        <circle cx="2.5" cy="2.5" r="2.5" stroke="none"/>
        <circle cx="2.5" cy="2.5" r="2" fill="none"/>
      </g>
    </g>
    <g id="Group_73" data-name="Group 73" transform="translate(0 46)">
      <g id="Ellipse_2-3" data-name="Ellipse 2" transform="translate(212 1547)" fill="#81c5fd" stroke="#81c5fd" stroke-width="1">
        <circle cx="2.5" cy="2.5" r="2.5" stroke="none"/>
        <circle cx="2.5" cy="2.5" r="2" fill="none"/>
      </g>
      <g id="Ellipse_3-3" data-name="Ellipse 3" transform="translate(228 1547)" fill="#81c5fd" stroke="#81c5fd" stroke-width="1">
        <circle cx="2.5" cy="2.5" r="2.5" stroke="none"/>
        <circle cx="2.5" cy="2.5" r="2" fill="none"/>
      </g>
      <g id="Ellipse_4-3" data-name="Ellipse 4" transform="translate(245 1547)" fill="#81c5fd" stroke="#81c5fd" stroke-width="1">
        <circle cx="2.5" cy="2.5" r="2.5" stroke="none"/>
        <circle cx="2.5" cy="2.5" r="2" fill="none"/>
      </g>
    </g>
  </g>
</svg>
