<svg xmlns="http://www.w3.org/2000/svg" width="20.887" height="20.887" viewBox="0 0 20.887 20.887">
  <g id="search" transform="translate(0 0)">
    <path id="Path_22" data-name="Path 22" d="M4.629,145.25,3.9,147.964l-2.657.056a10.462,10.462,0,0,1-.077-9.752h0l2.366.434,1.036,2.352a6.233,6.233,0,0,0,.059,4.2Z" transform="translate(0 -132.627)" fill="#fbbb00"/>
    <path id="Path_23" data-name="Path 23" d="M271.659,208.176a10.44,10.44,0,0,1-3.723,10.1h0l-2.98-.152-.422-2.633a6.224,6.224,0,0,0,2.678-3.178h-5.584v-4.132h10.031Z" transform="translate(-250.955 -199.683)" fill="#518ef8"/>
    <path id="Path_24" data-name="Path 24" d="M46.245,315.374h0a10.447,10.447,0,0,1-15.737-3.2l3.384-2.77a6.211,6.211,0,0,0,8.95,3.18Z" transform="translate(-29.264 -296.787)" fill="#28b446"/>
    <path id="Path_25" data-name="Path 25" d="M44.566,2.4l-3.383,2.77a6.21,6.21,0,0,0-9.156,3.252l-3.4-2.785h0A10.446,10.446,0,0,1,44.566,2.4Z" transform="translate(-27.456)" fill="#f14336"/>
  </g>
</svg>
