<svg id="Group_26" data-name="Group 26" xmlns="http://www.w3.org/2000/svg" width="31" height="32" viewBox="0 0 31 32">
  <g id="Group_25" data-name="Group 25" transform="translate(0)">
    <g id="cube">
      <path id="Path_9" data-name="Path 9" d="M29.82,5.146,15.893.26a1.882,1.882,0,0,0-.856,0L1.1,5.153A1.39,1.39,0,0,0,0,6.463v18.8a1.305,1.305,0,0,0,.856,1.225l14.181,5.652a1.633,1.633,0,0,0,.926,0L30.144,26.5A1.305,1.305,0,0,0,31,25.273V6.463A1.313,1.313,0,0,0,29.82,5.146ZM15.5,2.919,25.922,6.528,15.5,10.622,5.078,6.528ZM2.574,24.317V8.441l11.608,4.565V28.947Zm25.852,0L16.818,28.947v-15.9l11.608-4.6Z" transform="translate(0 -0.211)" fill="#1592e6"/>
    </g>
  </g>
</svg>
