<svg xmlns="http://www.w3.org/2000/svg" width="82.652" height="85.44" viewBox="0 0 82.652 85.44">
  <g id="Group_26" data-name="Group 26" transform="translate(0 0)">
    <g id="Group_25" data-name="Group 25" transform="translate(0 0)">
      <g id="cube">
        <path id="Path_9" data-name="Path 9" d="M79.508,13.388,42.374.342a5.01,5.01,0,0,0-2.282,0L2.941,13.405A3.712,3.712,0,0,0,0,16.9V67.109a3.485,3.485,0,0,0,2.282,3.27l37.81,15.092a4.348,4.348,0,0,0,2.468,0L80.37,70.4a3.485,3.485,0,0,0,2.282-3.27V16.9A3.5,3.5,0,0,0,79.508,13.388ZM41.326,7.442l27.787,9.636L41.326,28.007,13.539,17.078ZM6.862,64.574V22.184L37.81,34.373V76.937Zm68.927,0L44.842,76.937V34.478L75.79,22.184Z" transform="translate(0 -0.211)" fill="#fff"/>
      </g>
    </g>
  </g>
</svg>
