<svg xmlns="http://www.w3.org/2000/svg" width="128" height="38.52" viewBox="0 0 128 38.52">
  <g id="Group_27" data-name="Group 27" transform="translate(-139 -21)">
    <g id="Group_26" data-name="Group 26" transform="translate(139 21)">
      <g id="Group_25" data-name="Group 25" transform="translate(0 0)">
        <g id="cube">
          <path id="Path_9" data-name="Path 9" d="M35.845,6.152,19.1.27a2.259,2.259,0,0,0-1.029,0L1.326,6.159A1.674,1.674,0,0,0,0,7.736V30.371a1.571,1.571,0,0,0,1.029,1.474l17.046,6.8a1.96,1.96,0,0,0,1.113,0l17.046-6.8a1.571,1.571,0,0,0,1.029-1.474V7.736A1.58,1.58,0,0,0,35.845,6.152ZM18.631,3.471,31.159,7.815,18.631,12.743,6.1,7.815ZM3.094,29.228V10.117l13.953,5.5V34.8Zm31.075,0L20.216,34.8V15.66l13.953-5.542Z" transform="translate(0 -0.211)" fill="#7cc3fd"/>
        </g>
      </g>
    </g>
    <text id="YouthSpace" transform="translate(179 47)" fill="#7cc3fd" font-size="17" font-family="SegoeUI, Segoe UI"><tspan x="0" y="0">YouthSpace</tspan></text>
  </g>
</svg>
