<svg xmlns="http://www.w3.org/2000/svg" width="24.001" height="17.46" viewBox="0 0 24.001 17.46">
  <g id="youtube" transform="translate(0.001 -3)">
    <path id="Path_20" data-name="Path 20" d="M22.54,6.42a2.78,2.78,0,0,0-1.94-2C18.88,4,12,4,12,4s-6.88,0-8.6.46a2.78,2.78,0,0,0-1.94,2A29,29,0,0,0,1,11.75a29,29,0,0,0,.46,5.33A2.78,2.78,0,0,0,3.4,19c1.72.46,8.6.46,8.6.46s6.88,0,8.6-.46a2.78,2.78,0,0,0,1.94-2A29,29,0,0,0,23,11.75a29,29,0,0,0-.46-5.33Z" fill="none" stroke="#7cc3fd" stroke-linecap="round" stroke-linejoin="round" stroke-width="2"/>
    <path id="Path_21" data-name="Path 21" d="M9.75,15.02l5.75-3.27L9.75,8.48Z" fill="none" stroke="#7cc3fd" stroke-linecap="round" stroke-linejoin="round" stroke-width="2"/>
  </g>
</svg>
