<svg xmlns="http://www.w3.org/2000/svg" width="35" height="35" viewBox="0 0 35 35">
  <g id="Group_429" data-name="Group 429" transform="translate(-431 -482)">
    <g id="Path_73" data-name="Path 73" transform="translate(431 482)" fill="#fff">
      <path d="M 17.5 34.5 C 12.95913982391357 34.5 8.690059661865234 32.731689453125 5.479189872741699 29.52080917358398 C 2.268310070037842 26.30994033813477 0.5 22.04085922241211 0.5 17.5 C 0.5 12.95913982391357 2.268310070037842 8.690059661865234 5.479189872741699 5.479189872741699 C 8.690059661865234 2.268310070037842 12.95913982391357 0.5 17.5 0.5 C 22.04085922241211 0.5 26.30994033813477 2.268310070037842 29.52080917358398 5.479189872741699 C 32.731689453125 8.690059661865234 34.5 12.95913982391357 34.5 17.5 C 34.5 22.04085922241211 32.731689453125 26.30994033813477 29.52080917358398 29.52080917358398 C 26.30994033813477 32.731689453125 22.04085922241211 34.5 17.5 34.5 Z" stroke="none"/>
      <path d="M 17.5 1 C 13.09268951416016 1 8.949180603027344 2.716300964355469 5.832740783691406 5.832740783691406 C 2.716300964355469 8.949180603027344 1 13.09268951416016 1 17.5 C 1 21.90731048583984 2.716300964355469 26.05081939697266 5.832740783691406 29.16725921630859 C 8.949180603027344 32.28369903564453 13.09268951416016 34 17.5 34 C 21.90731048583984 34 26.05081939697266 32.28369903564453 29.16725921630859 29.16725921630859 C 32.28369903564453 26.05081939697266 34 21.90731048583984 34 17.5 C 34 13.09268951416016 32.28369903564453 8.949180603027344 29.16725921630859 5.832740783691406 C 26.05081939697266 2.716300964355469 21.90731048583984 1 17.5 1 M 17.5 0 C 27.16497993469238 0 35 7.835020065307617 35 17.5 C 35 27.16497993469238 27.16497993469238 35 17.5 35 C 7.835020065307617 35 0 27.16497993469238 0 17.5 C 0 7.835020065307617 7.835020065307617 0 17.5 0 Z" stroke="none" fill="silver"/>
    </g>
    <path id="Path_9" data-name="Path 9" d="M16.75,2.987,8.927.239a1.055,1.055,0,0,0-.481,0L.619,2.991A.782.782,0,0,0,0,3.728V14.3a.734.734,0,0,0,.481.689l7.966,3.179a.916.916,0,0,0,.52,0L16.932,15a.734.734,0,0,0,.481-.689V3.728A.738.738,0,0,0,16.75,2.987ZM8.706,1.734l5.854,2.03-5.854,2.3-5.854-2.3ZM1.445,13.771V4.84l6.52,2.568v8.967Zm14.521,0-6.52,2.6V7.43l6.52-2.59Z" transform="translate(439.803 490.289)" fill="#1592e6"/>
  </g>
</svg>
